<svg width="18" height="19" viewBox="0 0 18 19" fill="none" xmlns="http://www.w3.org/2000/svg">
<path fill-rule="evenodd" clip-rule="evenodd" d="M6.28915 19V19C4.63315 19 3.05915 18.334 1.85715 17.125C-0.530852 14.722 -0.628852 10.912 1.63815 8.631L9.02415 1.201C9.79315 0.427 10.8311 0 11.9461 0C13.1391 0 14.2731 0.479 15.1381 1.349C16.8591 3.08 16.9251 5.831 15.2841 7.481L7.88915 14.91C7.41015 15.393 6.76515 15.658 6.07315 15.658V15.658C5.34215 15.658 4.64915 15.366 4.12315 14.837C3.07015 13.776 3.03715 12.085 4.05015 11.065L10.8751 4.21C11.2651 3.818 11.8971 3.816 12.2891 4.206C12.6801 4.596 12.6821 5.229 12.2921 5.62L5.46815 12.476C5.22815 12.718 5.26115 13.145 5.54215 13.427C5.68815 13.574 5.88215 13.658 6.07315 13.658V13.658C6.18315 13.658 6.34115 13.631 6.47115 13.5L13.8661 6.071C14.7331 5.198 14.6681 3.713 13.7201 2.759C12.8131 1.847 11.2741 1.775 10.4421 2.611L3.05615 10.041C1.56215 11.544 1.66015 14.09 3.27615 15.715C4.09915 16.544 5.16915 17 6.28915 17C7.29015 17 8.21815 16.622 8.90015 15.936L16.2871 8.506C16.6761 8.115 17.3091 8.112 17.7011 8.502C18.0921 8.892 18.0941 9.524 17.7051 9.916L10.3181 17.346C9.25815 18.412 7.82715 19 6.28915 19" fill="#9C9C9C"/>
</svg>
