<?xml version="1.0" encoding="utf-8"?><svg viewBox="0 0 32 32" xmlns="http://www.w3.org/2000/svg" xmlns:xlink="http://www.w3.org/1999/xlink"><style>:root>svg{display:none}:root>svg:target{display:block}</style><svg fill="none" viewBox="0 0 32 32" id="Behance" xmlns="http://www.w3.org/2000/svg"><path fill-rule="evenodd" clip-rule="evenodd" d="M15.334 11.333a4.65 4.65 0 0 1-1.188 3.11 6 6 0 0 1-3.479 10.89h-6a2 2 0 0 1-2-2v-16a2 2 0 0 1 2-2H10a5.333 5.333 0 0 1 5.334 5.333v.667Zm-10 2V8H10a2.667 2.667 0 0 1 2.667 2.666v.667a2 2 0 0 1-2 2H5.334Zm0 2.667h5.333a3.333 3.333 0 0 1 0 6.666H5.334V16Z" fill="#C4B6B6"/><path d="M20 8a1.334 1.334 0 0 1 1.333-1.333H26a1.333 1.333 0 1 1 0 2.667h-4.667A1.333 1.333 0 0 1 20 8Z" fill="#C4B6B6"/><path fill-rule="evenodd" clip-rule="evenodd" d="M23.667 10.667c-3.788 0-7 2.91-7 6.667v1.333c0 3.757 3.212 6.667 7 6.667 2.02 0 3.483-.582 4.463-1.214.589-.378 1.052-.84 1.497-1.37a1.333 1.333 0 0 0-2.193-1.516 3.004 3.004 0 0 1-.747.645c-.575.37-1.541.788-3.02.788-2.47 0-4.333-1.867-4.333-4h10a1.334 1.334 0 0 0 1.333-1.333c0-3.758-3.212-6.667-7-6.667ZM27.751 16c-.587-1.521-2.15-2.666-4.084-2.666-1.935 0-3.497 1.145-4.084 2.666h8.168Z" fill="#C4B6B6"/></svg><svg fill="none" viewBox="0 0 32 32" id="Dribbble" xmlns="http://www.w3.org/2000/svg"><path fill-rule="evenodd" clip-rule="evenodd" d="M4.795 14.29c3.456.287 6.765-.406 9.505-1.973a31.393 31.393 0 0 0-4.812-5.594 11.332 11.332 0 0 0-4.693 7.568Zm4.13-10.373A13.993 13.993 0 0 0 2 16c0 7.732 6.268 14 14 14s14-6.268 14-14S23.732 2 16 2a13.936 13.936 0 0 0-7.075 1.916v.001Zm3.048 1.484a34.27 34.27 0 0 1 4.504 5.376 13.585 13.585 0 0 0 3.76-5.293A11.301 11.301 0 0 0 16 4.667a11.306 11.306 0 0 0-4.025.736l-.002-.002Zm10.615 1.376a16.134 16.134 0 0 1-4.684 6.29c.464.812.895 1.642 1.29 2.489 2.511-.977 5.227-1.428 8.02-1.197a11.33 11.33 0 0 0-4.625-7.58l-.001-.002Zm4.697 10.264c-2.429-.248-4.826.12-7.056.975a30.986 30.986 0 0 1 1.818 7.57 11.33 11.33 0 0 0 5.237-8.545h.001Zm-7.808 9.747a27.947 27.947 0 0 0-1.665-7.62c-2.824 1.623-5.248 4.048-6.932 6.945a11.285 11.285 0 0 0 5.12 1.22c1.213 0 2.383-.19 3.479-.544l-.002-.001Zm-10.82-2.155c1.952-3.298 4.787-6.096 8.123-7.945a31.995 31.995 0 0 0-1.08-2.103c-3.219 1.856-7.067 2.672-10.995 2.372a11.31 11.31 0 0 0 3.952 7.676Z" fill="#C4B6B6"/></svg><svg fill="none" viewBox="0 0 32 32" id="Facebook" xmlns="http://www.w3.org/2000/svg"><path fill-rule="evenodd" clip-rule="evenodd" d="M2.667 8A5.333 5.333 0 0 1 8 2.667h16A5.333 5.333 0 0 1 29.334 8v16A5.333 5.333 0 0 1 24 29.334H8A5.333 5.333 0 0 1 2.667 24V8ZM8 5.334A2.667 2.667 0 0 0 5.334 8v16A2.667 2.667 0 0 0 8 26.667h8v-9.333h-1.333a1.333 1.333 0 1 1 0-2.667H16v-2A4.667 4.667 0 0 1 20.667 8h.8a1.333 1.333 0 0 1 0 2.667h-.8a2 2 0 0 0-2 2v2h2.8a1.334 1.334 0 0 1 0 2.667h-2.8v9.333H24A2.667 2.667 0 0 0 26.667 24V8A2.667 2.667 0 0 0 24 5.334H8Z" fill="#C4B6B6"/></svg><svg fill="none" viewBox="0 0 32 32" id="Linkedin" xmlns="http://www.w3.org/2000/svg"><path fill-rule="evenodd" clip-rule="evenodd" d="M8 2.667A5.333 5.333 0 0 0 2.667 8v16A5.333 5.333 0 0 0 8 29.334h16A5.333 5.333 0 0 0 29.334 24V8A5.333 5.333 0 0 0 24 2.667H8ZM5.334 8A2.667 2.667 0 0 1 8 5.334h16A2.667 2.667 0 0 1 26.667 8v16A2.667 2.667 0 0 1 24 26.667H8A2.667 2.667 0 0 1 5.334 24V8ZM12 14.667a1.333 1.333 0 0 0-2.666 0v8a1.333 1.333 0 1 0 2.666 0v-8ZM12.667 10a2 2 0 1 1-4 0 2 2 0 0 1 4 0ZM16 13.334c.454 0 .854.226 1.094.57a4.68 4.68 0 0 1 2.24-.57c2.88 0 4.666 2.568 4.666 4.761v4.572a1.333 1.333 0 0 1-2.666 0v-4.573c0-1.024-.88-2.095-2-2.095-.699 0-1.471.38-2 1.284v5.384a1.333 1.333 0 1 1-2.667 0v-8A1.333 1.333 0 0 1 16 13.334Z" fill="#C4B6B6"/></svg><svg fill="none" viewBox="0 0 32 32" id="Snapchat" xmlns="http://www.w3.org/2000/svg"><path fill-rule="evenodd" clip-rule="evenodd" d="M9.664 5.427c1.577-1.872 3.809-2.76 6.336-2.76 2.587 0 4.806 1.045 6.352 2.95 1.374 1.694 2.151 3.98 2.293 6.637l.122.018.027.004c.226.032.497.072.779.127 1.04.201 2.818.71 3.43 2.619.307.958.154 1.846-.384 2.55-.462.607-1.124.958-1.597 1.17-.235.106-.47.197-.667.273.462 1.248 1.264 2.532 2.152 3.695.836 1.096.615 2.484.183 3.389-.434.907-1.37 1.943-2.732 2.001-.77.034-1.58.114-2.385.26-.364.067-.794.212-1.327.432-.319.131-.61.262-.925.402-.251.112-.515.229-.82.36-1.254.538-2.794 1.113-4.5 1.113-1.707 0-3.247-.575-4.5-1.113-.306-.131-.571-.248-.82-.36a36.149 36.149 0 0 0-.926-.402c-.533-.22-.963-.366-1.327-.433a17.633 17.633 0 0 0-2.386-.259c-1.362-.058-2.299-1.094-2.73-2.001-.433-.905-.654-2.293.182-3.39.893-1.17 1.7-2.463 2.16-3.72-.202-.079-.402-.164-.599-.254-.461-.216-1.088-.561-1.55-1.14-.517-.648-.745-1.484-.542-2.441.432-2.05 2.36-2.56 3.379-2.752.29-.054.57-.094.806-.127l.047-.007.16-.022c.132-2.834.904-5.151 2.31-6.819Zm2.04 1.717c-1.017 1.207-1.704 3.147-1.704 6v.139l-.029.137c-.148.699-.685 1.026-.952 1.151-.28.132-.583.197-.796.237-.208.039-.44.071-.647.099l-.06.01c-.229.03-.456.065-.682.106-1.02.19-1.214.444-1.263.68-.035.17-.004.204.013.223l.006.005c.07.09.241.223.596.388.165.077.34.148.533.227l.048.018c.17.067.37.148.548.232.175.08.467.227.715.464.288.276.636.815.466 1.526-.485 2.041-1.71 4.006-2.88 5.54a.316.316 0 0 0-.022.141c0 .127.036.3.122.483.088.182.2.322.304.406.086.07.134.08.14.08.867.038 1.8.128 2.746.3.644.118 1.28.35 1.867.592.324.134.696.299 1.057.459.252.112.498.221.72.316 1.198.513 2.317.897 3.45.897 1.134 0 2.254-.384 3.451-.897.221-.095.468-.205.72-.316.36-.16.733-.325 1.056-.459.587-.242 1.223-.474 1.867-.592.947-.173 1.88-.262 2.746-.3.009 0 .055-.01.14-.08.13-.112.233-.25.305-.406a1.18 1.18 0 0 0 .122-.483c0-.124-.03-.153-.02-.139-1.17-1.533-2.397-3.5-2.884-5.542-.18-.76.232-1.307.516-1.56a2.79 2.79 0 0 1 .73-.443c.18-.08.382-.156.556-.221l.064-.026c.204-.076.386-.146.558-.225.36-.161.514-.285.566-.348a.598.598 0 0 0-.028-.127c-.122-.378-.465-.634-1.4-.816-.213-.04-.427-.072-.654-.106l-.05-.007a13.176 13.176 0 0 1-.631-.101 3.12 3.12 0 0 1-.785-.248c-.28-.139-.774-.471-.915-1.138l-.03-.137v-.14c0-2.6-.675-4.56-1.718-5.844C19.262 6.04 17.815 5.334 16 5.334c-1.873 0-3.306.634-4.297 1.81h.002Z" fill="#C4B6B6"/></svg><svg fill="none" viewBox="0 0 28 28" id="pintrest" xmlns="http://www.w3.org/2000/svg"><path fill-rule="evenodd" clip-rule="evenodd" d="M2.667 14a11.333 11.333 0 1 1 7.43 10.644c.77-2.062 1.516-4.132 2.239-6.21.765.546 1.753.9 2.997.9 2.58 0 5.3-1.7 5.974-5.073C22.156 10.028 18.765 6 14 6c-2.004 0-3.975.805-5.45 2.083C7.074 9.364 6 11.209 6 13.333c0 1.034.312 2.184 1.055 2.942a1.347 1.347 0 0 0 1.888.001 1.333 1.333 0 0 0 .029-1.856c-1.048-1.307.333-3.461 1.325-4.321C11.328 9.205 12.69 8.667 14 8.667c3.236 0 5.179 2.638 4.693 5.072-.405 2.018-1.941 2.928-3.36 2.928-1.09 0-1.677-.46-2.053-1.056.205-.646.38-1.232.505-1.71.256-.982.411-2.168-.473-2.905-.657-.547-1.433-.427-1.908-.188-.884.44-1.404 1.472-1.404 2.525 0 .588.092 1.5.423 2.443a228.66 228.66 0 0 1-2.718 7.65A11.323 11.323 0 0 1 2.667 14ZM14 0C6.268 0 0 6.268 0 14s6.268 14 14 14 14-6.268 14-14S21.732 0 14 0Z" fill="#C4B6B6"/></svg></svg>